Coordinates
version=1
nRows=24
nColumns=24
inDegrees=yes

Units are S.I. units (second, meters, Newtons, ...)
Angles are in degrees.

endheader
time	pelvis_tilt	pelvis_list	pelvis_rotation	pelvis_tx	pelvis_ty	pelvis_tz	hip_flexion_r	hip_adduction_r	hip_rotation_r	knee_angle_r	ankle_angle_r	subtalar_angle_r	mtp_angle_r	hip_flexion_l	hip_adduction_l	hip_rotation_l	knee_angle_l	ankle_angle_l	subtalar_angle_l	mtp_angle_l	lumbar_extension	lumbar_bending	lumbar_rotation
      0.69016667	      2.57127395	      0.57458208	      2.67404448	     -0.44606605	      1.02436711	      0.27334480	      4.74270243	      4.44925877	     -0.02267393	    -13.23587781	      4.73604779	    -17.12370340	      6.22541416	     13.35081523	     -1.20616538	     -4.04974140	    -66.98191703	      0.51741647	    -15.73384006	      2.33184267	     -4.82376538	     -0.34477508	      1.91330282
      0.69433333	      2.53099594	      0.69508566	      2.53435006	     -0.44089337	      1.02502541	      0.27360311	      4.29289902	      4.33664785	      0.07359747	    -12.89961355	      4.82010718	    -17.01349788	      6.22753527	     13.90815039	     -1.06579324	     -4.14726155	    -66.64717096	      0.79673607	    -15.84576635	      2.31227017	     -4.81032286	     -0.47314398	      1.98675952
      0.69850000	      2.50529094	      0.88318042	      2.31449072	     -0.43574727	      1.02569321	      0.27393111	      3.86497735	      4.14526494	      0.20030167	    -12.64107956	      4.95767645	    -16.82904396	      6.23170993	     14.40685917	     -0.86424506	     -4.33620591	    -66.19903346	      1.00499081	    -15.99564142	      2.19656154	     -4.83190821	     -0.67075309	      2.49192183
      0.70266667	      2.48189095	      1.03510668	      2.12862047	     -0.43059052	      1.02632239	      0.27419327	      3.41662785	      3.98814856	      0.29380931	    -12.33770362	      5.01295738	    -16.67560878	      6.23526648	     14.90130010	     -0.69539606	     -4.47782470	    -65.71066922	      1.28863421	    -16.03634349	      2.14654104	     -4.84469772	     -0.82778368	      2.67096233
      0.70683333	      2.46859031	      1.17832056	      1.93824240	     -0.42541414	      1.02691918	      0.27444835	      2.95477927	      3.83744619	      0.38745245	    -12.03337577	      5.17140144	    -16.47813701	      6.24411870	     15.36761247	     -0.54093815	     -4.62200900	    -65.15655246	      1.51311375	    -16.02460591	      2.05111712	     -4.86378176	     -0.95953254	      3.08741353
      0.71100000	      2.44096195	      1.30903517	      1.75036067	     -0.42025871	      1.02744191	      0.27468910	      2.51022620	      3.69604366	      0.47458596	    -11.72317755	      5.27698352	    -16.29600932	      6.25480396	     15.84336118	     -0.40024333	     -4.75808937	    -64.55803162	      1.76948573	    -15.96511595	      1.96684025	     -4.87181202	     -1.09324344	      3.38076936
      0.71516667	      2.40953406	      1.44401317	      1.55595182	     -0.41508986	      1.02792385	      0.27492077	      2.07318905	      3.54622950	      0.55788710	    -11.42001225	      5.38737261	    -16.10835567	      6.26718328	     16.30271390	     -0.25627621	     -4.89949994	    -63.89319783	      2.01458837	    -15.86682738	      1.89563478	     -4.87302138	     -1.22636700	      3.67328325
      0.71933333	      2.36641505	      1.58333957	      1.36577218	     -0.40990823	      1.02837078	      0.27513039	      1.64745990	      3.38760301	      0.63674758	    -11.11190932	      5.44926737	    -15.94091683	      6.27562937	     16.75554170	     -0.10474629	     -5.03233462	    -63.16078280	      2.24862901	    -15.74941359	      1.86669674	     -4.85258661	     -1.36384267	      3.85569912
      0.72350000	      2.35351985	      1.70872918	      1.16210973	     -0.40473290	      1.02880055	      0.27534246	      1.18991635	      3.24175096	      0.71648517	    -10.80263749	      5.56064339	    -15.74618910	      6.28748401	     17.15970835	      0.02428985	     -5.17564506	    -62.37964387	      2.48705860	    -15.55870705	      1.83827003	     -4.86897695	     -1.48088052	      4.15215458
      0.72766667	      2.34148405	      1.80723147	      0.97787589	     -0.39955633	      1.02915252	      0.27553069	      0.72415989	      3.12368983	      0.78300545	    -10.47832890	      5.70726804	    -15.53346067	      6.30499521	     17.55899387	      0.12149839	     -5.30056140	    -61.56868622	      2.72703811	    -15.34089411	      1.80610508	     -4.89481998	     -1.57286390	      4.51829999
      0.73183333	      2.31152794	      1.91529951	      0.78660362	     -0.39437818	      1.02946589	      0.27570392	      0.28519493	      2.99092774	      0.85429533	    -10.16511526	      5.81169620	    -15.34421347	      6.32215283	     17.95404588	      0.23346321	     -5.42507214	    -60.68770960	      2.94655349	    -15.11437996	      1.78418279	     -4.89175846	     -1.67329729	      4.80098949
      0.73600000	      2.30212008	      2.02407865	      0.59544081	     -0.38919560	      1.02975729	      0.27587268	     -0.17751693	      2.85515288	      0.91860443	     -9.84815583	      5.91881575	    -15.14782049	      6.34047988	     18.30744615	      0.34399807	     -5.54872176	    -59.75231115	      3.16085180	    -14.85782897	      1.77152955	     -4.91570642	     -1.77249263	      5.08074253
      0.74016667	      2.29570108	      2.11736098	      0.40942502	     -0.38400852	      1.03001283	      0.27602458	     -0.64575988	      2.73448858	      0.98579213	     -9.52544530	      6.01723114	    -14.96796248	      6.35841620	     18.64183806	      0.43703489	     -5.66514016	    -58.76966300	      3.36552634	    -14.57885991	      1.76875230	     -4.94009393	     -1.85297845	      5.35253023
      0.74433333	      2.25861787	      2.20435310	      0.22730783	     -0.37881691	      1.03016093	      0.27616303	     -1.07552339	      2.61868911	      1.05081008	     -9.21276609	      6.12123553	    -14.79598095	      6.37579278	     18.99548118	      0.52255118	     -5.77728490	    -57.74539556	      3.55993507	    -14.28439796	      1.77409684	     -4.92625460	     -1.92967006	      5.61563698
      0.74850000	      2.25784138	      2.28465481	      0.05034157	     -0.37362485	      1.03032855	      0.27628857	     -1.54940543	      2.50834144	      1.11211830	     -8.88882160	      6.21510409	    -14.62828468	      6.39296343	     19.28847166	      0.60254354	     -5.88038655	    -56.66670230	      3.74016065	    -13.98132941	      1.78683394	     -4.95761846	     -1.99635970	      5.87661374
      0.75266667	      2.23103106	      2.35579974	     -0.12223564	     -0.36842949	      1.03040556	      0.27640060	     -1.99182502	      2.40653173	      1.17777215	     -8.57096460	      6.31060063	    -14.47107551	      6.40922876	     19.59433303	      0.67319484	     -5.97733263	    -55.54616302	      3.90716509	    -13.67208628	      1.80654228	     -4.95691737	     -2.05168478	      6.13285528
      0.75683333	      2.18606879	      2.42099187	     -0.28698535	     -0.36323214	      1.03040185	      0.27649787	     -2.41087133	      2.31029167	      1.24078887	     -8.26056707	      6.40764048	    -14.32562357	      6.42427000	     19.90397241	      0.73886333	     -6.06487370	    -54.38419530	      4.05452806	    -13.36403848	      1.83192870	     -4.93454894	     -2.10288673	      6.37846740
      0.76100000	      2.17729179	      2.49197265	     -0.44708848	     -0.35803301	      1.03042761	      0.27657616	     -2.87242822	      2.20512449	      1.29887740	     -7.94235698	      6.49510712	    -14.17391036	      6.43855118	     20.14824971	      0.81718527	     -6.14083803	    -53.16015501	      4.17762106	    -13.07351181	      1.86413703	     -4.95804455	     -2.15788308	      6.61753537
      0.76516667	      2.14926467	      2.54031948	     -0.59464875	     -0.35283002	      1.03035946	      0.27663988	     -3.31154039	      2.12516473	      1.35158258	     -7.62887231	      6.58893262	    -14.04617406	      6.45067070	     20.40207303	      0.86858890	     -6.20990263	    -51.90905877	      4.28744230	    -12.77658870	      1.90140608	     -4.95310309	     -2.18906798	      6.84284307
      0.76933333	      2.12107474	      2.58710480	     -0.73212967	     -0.34762260	      1.03026466	      0.27668672	     -3.75096361	      2.04679701	      1.39951641	     -7.31469727	      6.67829628	    -13.92891568	      6.45959704	     20.63412651	      0.92316564	     -6.26778840	    -50.60645823	      4.36767197	    -12.49986154	      1.94064393	     -4.94896847	     -2.21713205	      7.05286478
      0.77350000	      2.05150689	      2.64094074	     -0.86019330	     -0.34239436	      1.03008257	      0.27671512	     -4.13613323	      1.95985701	      1.43659989	     -7.02201769	      6.74070960	    -13.82756271	      6.46388695	     20.88771950	      0.99106725	     -6.31043986	    -49.25095764	      4.41056911	    -12.24878568	      1.96543236	     -4.88831196	     -2.26265111	      7.19009361
      0.77766667	      2.05305629	      2.67474768	     -0.98169524	     -0.33718813	      1.02994014	      0.27673188	     -4.61201689	      1.89411286	      1.48325882	     -6.70030248	      6.85320619	    -13.70871635	      6.46851537	     21.04701195	      1.03771078	     -6.35050270	    -47.86137461	      4.44811218	    -12.01122329	      2.01506692	     -4.92879777	     -2.27182095	      7.44960769
      0.78183333	      1.99571436	      2.70347982	     -1.08849912	     -0.33196752	      1.02968262	      0.27672282	     -5.01284554	      1.83514536	      1.52056689	     -6.40421971	      6.94054149	    -13.61400223	      6.46959722	     21.25080013	      1.08484552	     -6.37201484	    -46.42944735	      4.44860052	    -11.79502508	      2.06444940	     -4.89224146	     -2.27971697	      7.63210849
      0.78600000	      1.91834782	      2.73352521	     -1.17969236	     -0.32672190	      1.02935658	      0.27669642	     -5.38674889	      1.77648275	      1.52963249	     -6.12248812	      7.00913554	    -13.53878731	      6.46844278	     21.45404396	      1.13500436	     -6.38967974	    -44.95368262	      4.42467915	    -11.58625744	      2.09500667	     -4.82048808	     -2.29674893	      7.74711200
